<svg width="111" height="76" viewBox="0 0 111 76" fill="none" xmlns="http://www.w3.org/2000/svg">
<path d="M59.312 55V48.952H73.712C74.416 48.952 75.056 48.776 75.632 48.424C76.208 48.072 76.672 47.608 77.024 47.032C77.376 46.424 77.552 45.768 77.552 45.064C77.552 44.328 77.376 43.672 77.024 43.096C76.672 42.488 76.208 42.008 75.632 41.656C75.056 41.304 74.416 41.128 73.712 41.128H68.096C66.208 41.128 64.496 40.744 62.96 39.976C61.424 39.208 60.192 38.104 59.264 36.664C58.368 35.192 57.92 33.432 57.92 31.384C57.92 29.368 58.352 27.624 59.216 26.152C60.08 24.648 61.248 23.48 62.72 22.648C64.192 21.816 65.824 21.4 67.616 21.4H82.208V27.448H68.288C67.648 27.448 67.056 27.624 66.512 27.976C65.968 28.296 65.536 28.728 65.216 29.272C64.928 29.816 64.784 30.424 64.784 31.096C64.784 31.768 64.928 32.376 65.216 32.92C65.536 33.464 65.968 33.896 66.512 34.216C67.056 34.536 67.648 34.696 68.288 34.696H74.096C76.176 34.696 77.984 35.096 79.52 35.896C81.056 36.696 82.24 37.816 83.072 39.256C83.936 40.696 84.368 42.376 84.368 44.296C84.368 46.568 83.92 48.504 83.024 50.104C82.16 51.704 80.976 52.92 79.472 53.752C78 54.584 76.368 55 74.576 55H59.312Z" fill="#CCCCCC"/>
<path d="M43.312 55V48.952H57.712C58.416 48.952 59.056 48.776 59.632 48.424C60.208 48.072 60.672 47.608 61.024 47.032C61.376 46.424 61.552 45.768 61.552 45.064C61.552 44.328 61.376 43.672 61.024 43.096C60.672 42.488 60.208 42.008 59.632 41.656C59.056 41.304 58.416 41.128 57.712 41.128H52.096C50.208 41.128 48.496 40.744 46.96 39.976C45.424 39.208 44.192 38.104 43.264 36.664C42.368 35.192 41.92 33.432 41.92 31.384C41.92 29.368 42.352 27.624 43.216 26.152C44.08 24.648 45.248 23.48 46.72 22.648C48.192 21.816 49.824 21.4 51.616 21.4H66.208V27.448H52.288C51.648 27.448 51.056 27.624 50.512 27.976C49.968 28.296 49.536 28.728 49.216 29.272C48.928 29.816 48.784 30.424 48.784 31.096C48.784 31.768 48.928 32.376 49.216 32.92C49.536 33.464 49.968 33.896 50.512 34.216C51.056 34.536 51.648 34.696 52.288 34.696H58.096C60.176 34.696 61.984 35.096 63.52 35.896C65.056 36.696 66.24 37.816 67.072 39.256C67.936 40.696 68.368 42.376 68.368 44.296C68.368 46.568 67.92 48.504 67.024 50.104C66.16 51.704 64.976 52.92 63.472 53.752C62 54.584 60.368 55 58.576 55H43.312Z" fill="#999999"/>
<path d="M27.312 55V48.952H41.712C42.416 48.952 43.056 48.776 43.632 48.424C44.208 48.072 44.672 47.608 45.024 47.032C45.376 46.424 45.552 45.768 45.552 45.064C45.552 44.328 45.376 43.672 45.024 43.096C44.672 42.488 44.208 42.008 43.632 41.656C43.056 41.304 42.416 41.128 41.712 41.128H36.096C34.208 41.128 32.496 40.744 30.96 39.976C29.424 39.208 28.192 38.104 27.264 36.664C26.368 35.192 25.92 33.432 25.92 31.384C25.92 29.368 26.352 27.624 27.216 26.152C28.08 24.648 29.248 23.48 30.72 22.648C32.192 21.816 33.824 21.4 35.616 21.4H50.208V27.448H36.288C35.648 27.448 35.056 27.624 34.512 27.976C33.968 28.296 33.536 28.728 33.216 29.272C32.928 29.816 32.784 30.424 32.784 31.096C32.784 31.768 32.928 32.376 33.216 32.92C33.536 33.464 33.968 33.896 34.512 34.216C35.056 34.536 35.648 34.696 36.288 34.696H42.096C44.176 34.696 45.984 35.096 47.52 35.896C49.056 36.696 50.24 37.816 51.072 39.256C51.936 40.696 52.368 42.376 52.368 44.296C52.368 46.568 51.92 48.504 51.024 50.104C50.16 51.704 48.976 52.92 47.472 53.752C46 54.584 44.368 55 42.576 55H27.312Z" fill="#666666"/>
<line x1="24" y1="38" x2="87" y2="38" stroke="#FF9E2F" stroke-width="6"/>
</svg>
